<mxfile host="app.diagrams.net" agent="Mozilla/5.0 (Windows NT 10.0; Win64; x64) AppleWebKit/537.36 (KHTML, like Gecko) Chrome/131.0.0.0 Safari/537.36" version="26.0.4">
  <diagram id="C5RBs43oDa-KdzZeNtuy" name="Page-1">
    <mxGraphModel dx="1985" dy="815" grid="1" gridSize="10" guides="1" tooltips="1" connect="1" arrows="1" fold="1" page="1" pageScale="1" pageWidth="827" pageHeight="1169" math="0" shadow="0">
      <root>
        <mxCell id="WIyWlLk6GJQsqaUBKTNV-0" />
        <mxCell id="WIyWlLk6GJQsqaUBKTNV-1" parent="WIyWlLk6GJQsqaUBKTNV-0" />
        <mxCell id="SnTEJqyS0EekTpEARaaV-2" style="edgeStyle=orthogonalEdgeStyle;rounded=0;orthogonalLoop=1;jettySize=auto;html=1;exitX=0.5;exitY=1;exitDx=0;exitDy=0;exitPerimeter=0;entryX=0.5;entryY=0;entryDx=0;entryDy=0;" edge="1" parent="WIyWlLk6GJQsqaUBKTNV-1" source="SnTEJqyS0EekTpEARaaV-0" target="SnTEJqyS0EekTpEARaaV-1">
          <mxGeometry relative="1" as="geometry" />
        </mxCell>
        <mxCell id="SnTEJqyS0EekTpEARaaV-0" value="START" style="strokeWidth=2;html=1;shape=mxgraph.flowchart.start_1;whiteSpace=wrap;" vertex="1" parent="WIyWlLk6GJQsqaUBKTNV-1">
          <mxGeometry x="70" y="50" width="100" height="60" as="geometry" />
        </mxCell>
        <mxCell id="SnTEJqyS0EekTpEARaaV-1" value="READ DAY" style="shape=parallelogram;html=1;strokeWidth=2;perimeter=parallelogramPerimeter;whiteSpace=wrap;rounded=1;arcSize=12;size=0.23;" vertex="1" parent="WIyWlLk6GJQsqaUBKTNV-1">
          <mxGeometry x="15" y="170" width="210" height="60" as="geometry" />
        </mxCell>
        <mxCell id="SnTEJqyS0EekTpEARaaV-24" style="edgeStyle=orthogonalEdgeStyle;rounded=0;orthogonalLoop=1;jettySize=auto;html=1;exitX=0.5;exitY=1;exitDx=0;exitDy=0;exitPerimeter=0;" edge="1" parent="WIyWlLk6GJQsqaUBKTNV-1" source="SnTEJqyS0EekTpEARaaV-3" target="SnTEJqyS0EekTpEARaaV-12">
          <mxGeometry relative="1" as="geometry" />
        </mxCell>
        <mxCell id="SnTEJqyS0EekTpEARaaV-40" value="YES" style="edgeLabel;html=1;align=center;verticalAlign=middle;resizable=0;points=[];" vertex="1" connectable="0" parent="SnTEJqyS0EekTpEARaaV-24">
          <mxGeometry x="-0.4717" relative="1" as="geometry">
            <mxPoint as="offset" />
          </mxGeometry>
        </mxCell>
        <mxCell id="SnTEJqyS0EekTpEARaaV-3" value="DAY = 1" style="strokeWidth=2;html=1;shape=mxgraph.flowchart.decision;whiteSpace=wrap;" vertex="1" parent="WIyWlLk6GJQsqaUBKTNV-1">
          <mxGeometry x="72.5" y="270" width="95" height="100" as="geometry" />
        </mxCell>
        <mxCell id="SnTEJqyS0EekTpEARaaV-4" style="edgeStyle=orthogonalEdgeStyle;rounded=0;orthogonalLoop=1;jettySize=auto;html=1;exitX=0.5;exitY=1;exitDx=0;exitDy=0;entryX=0.5;entryY=0;entryDx=0;entryDy=0;entryPerimeter=0;" edge="1" parent="WIyWlLk6GJQsqaUBKTNV-1" source="SnTEJqyS0EekTpEARaaV-1" target="SnTEJqyS0EekTpEARaaV-3">
          <mxGeometry relative="1" as="geometry" />
        </mxCell>
        <mxCell id="SnTEJqyS0EekTpEARaaV-19" style="edgeStyle=orthogonalEdgeStyle;rounded=0;orthogonalLoop=1;jettySize=auto;html=1;exitX=1;exitY=0.5;exitDx=0;exitDy=0;exitPerimeter=0;" edge="1" parent="WIyWlLk6GJQsqaUBKTNV-1" source="SnTEJqyS0EekTpEARaaV-5" target="SnTEJqyS0EekTpEARaaV-6">
          <mxGeometry relative="1" as="geometry" />
        </mxCell>
        <mxCell id="SnTEJqyS0EekTpEARaaV-38" value="NO" style="edgeLabel;html=1;align=center;verticalAlign=middle;resizable=0;points=[];" vertex="1" connectable="0" parent="SnTEJqyS0EekTpEARaaV-19">
          <mxGeometry x="-0.1742" y="-2" relative="1" as="geometry">
            <mxPoint as="offset" />
          </mxGeometry>
        </mxCell>
        <mxCell id="SnTEJqyS0EekTpEARaaV-25" style="edgeStyle=orthogonalEdgeStyle;rounded=0;orthogonalLoop=1;jettySize=auto;html=1;exitX=0.5;exitY=1;exitDx=0;exitDy=0;exitPerimeter=0;entryX=0.5;entryY=0;entryDx=0;entryDy=0;" edge="1" parent="WIyWlLk6GJQsqaUBKTNV-1" source="SnTEJqyS0EekTpEARaaV-5" target="SnTEJqyS0EekTpEARaaV-11">
          <mxGeometry relative="1" as="geometry" />
        </mxCell>
        <mxCell id="SnTEJqyS0EekTpEARaaV-41" value="YES" style="edgeLabel;html=1;align=center;verticalAlign=middle;resizable=0;points=[];" vertex="1" connectable="0" parent="SnTEJqyS0EekTpEARaaV-25">
          <mxGeometry x="-0.28" y="-1" relative="1" as="geometry">
            <mxPoint as="offset" />
          </mxGeometry>
        </mxCell>
        <mxCell id="SnTEJqyS0EekTpEARaaV-5" value="DAY = 2" style="strokeWidth=2;html=1;shape=mxgraph.flowchart.decision;whiteSpace=wrap;" vertex="1" parent="WIyWlLk6GJQsqaUBKTNV-1">
          <mxGeometry x="262.25" y="270" width="95" height="100" as="geometry" />
        </mxCell>
        <mxCell id="SnTEJqyS0EekTpEARaaV-26" style="edgeStyle=orthogonalEdgeStyle;rounded=0;orthogonalLoop=1;jettySize=auto;html=1;exitX=0.5;exitY=1;exitDx=0;exitDy=0;exitPerimeter=0;entryX=0.5;entryY=0;entryDx=0;entryDy=0;" edge="1" parent="WIyWlLk6GJQsqaUBKTNV-1" source="SnTEJqyS0EekTpEARaaV-6" target="SnTEJqyS0EekTpEARaaV-13">
          <mxGeometry relative="1" as="geometry" />
        </mxCell>
        <mxCell id="SnTEJqyS0EekTpEARaaV-42" value="YES" style="edgeLabel;html=1;align=center;verticalAlign=middle;resizable=0;points=[];" vertex="1" connectable="0" parent="SnTEJqyS0EekTpEARaaV-26">
          <mxGeometry x="-0.28" y="2" relative="1" as="geometry">
            <mxPoint as="offset" />
          </mxGeometry>
        </mxCell>
        <mxCell id="SnTEJqyS0EekTpEARaaV-6" value="DAY = 3" style="strokeWidth=2;html=1;shape=mxgraph.flowchart.decision;whiteSpace=wrap;" vertex="1" parent="WIyWlLk6GJQsqaUBKTNV-1">
          <mxGeometry x="446.25" y="270" width="95" height="100" as="geometry" />
        </mxCell>
        <mxCell id="SnTEJqyS0EekTpEARaaV-21" style="edgeStyle=orthogonalEdgeStyle;rounded=0;orthogonalLoop=1;jettySize=auto;html=1;exitX=1;exitY=0.5;exitDx=0;exitDy=0;exitPerimeter=0;" edge="1" parent="WIyWlLk6GJQsqaUBKTNV-1" source="SnTEJqyS0EekTpEARaaV-7" target="SnTEJqyS0EekTpEARaaV-8">
          <mxGeometry relative="1" as="geometry" />
        </mxCell>
        <mxCell id="SnTEJqyS0EekTpEARaaV-36" value="NO" style="edgeLabel;html=1;align=center;verticalAlign=middle;resizable=0;points=[];" vertex="1" connectable="0" parent="SnTEJqyS0EekTpEARaaV-21">
          <mxGeometry x="-0.1795" y="1" relative="1" as="geometry">
            <mxPoint as="offset" />
          </mxGeometry>
        </mxCell>
        <mxCell id="SnTEJqyS0EekTpEARaaV-27" style="edgeStyle=orthogonalEdgeStyle;rounded=0;orthogonalLoop=1;jettySize=auto;html=1;exitX=0.5;exitY=1;exitDx=0;exitDy=0;exitPerimeter=0;" edge="1" parent="WIyWlLk6GJQsqaUBKTNV-1" source="SnTEJqyS0EekTpEARaaV-7" target="SnTEJqyS0EekTpEARaaV-14">
          <mxGeometry relative="1" as="geometry" />
        </mxCell>
        <mxCell id="SnTEJqyS0EekTpEARaaV-43" value="YES" style="edgeLabel;html=1;align=center;verticalAlign=middle;resizable=0;points=[];" vertex="1" connectable="0" parent="SnTEJqyS0EekTpEARaaV-27">
          <mxGeometry x="-0.33" relative="1" as="geometry">
            <mxPoint as="offset" />
          </mxGeometry>
        </mxCell>
        <mxCell id="SnTEJqyS0EekTpEARaaV-7" value="DAY = 4" style="strokeWidth=2;html=1;shape=mxgraph.flowchart.decision;whiteSpace=wrap;" vertex="1" parent="WIyWlLk6GJQsqaUBKTNV-1">
          <mxGeometry x="626.25" y="270" width="95" height="100" as="geometry" />
        </mxCell>
        <mxCell id="SnTEJqyS0EekTpEARaaV-28" style="edgeStyle=orthogonalEdgeStyle;rounded=0;orthogonalLoop=1;jettySize=auto;html=1;exitX=0.5;exitY=1;exitDx=0;exitDy=0;exitPerimeter=0;" edge="1" parent="WIyWlLk6GJQsqaUBKTNV-1" source="SnTEJqyS0EekTpEARaaV-8" target="SnTEJqyS0EekTpEARaaV-15">
          <mxGeometry relative="1" as="geometry" />
        </mxCell>
        <mxCell id="SnTEJqyS0EekTpEARaaV-44" value="YES" style="edgeLabel;html=1;align=center;verticalAlign=middle;resizable=0;points=[];" vertex="1" connectable="0" parent="SnTEJqyS0EekTpEARaaV-28">
          <mxGeometry x="-0.2799" y="5" relative="1" as="geometry">
            <mxPoint as="offset" />
          </mxGeometry>
        </mxCell>
        <mxCell id="SnTEJqyS0EekTpEARaaV-8" value="DAY = 5" style="strokeWidth=2;html=1;shape=mxgraph.flowchart.decision;whiteSpace=wrap;" vertex="1" parent="WIyWlLk6GJQsqaUBKTNV-1">
          <mxGeometry x="813.75" y="270" width="95" height="100" as="geometry" />
        </mxCell>
        <mxCell id="SnTEJqyS0EekTpEARaaV-29" style="edgeStyle=orthogonalEdgeStyle;rounded=0;orthogonalLoop=1;jettySize=auto;html=1;exitX=0.5;exitY=1;exitDx=0;exitDy=0;exitPerimeter=0;entryX=0.5;entryY=0;entryDx=0;entryDy=0;" edge="1" parent="WIyWlLk6GJQsqaUBKTNV-1" source="SnTEJqyS0EekTpEARaaV-9" target="SnTEJqyS0EekTpEARaaV-16">
          <mxGeometry relative="1" as="geometry" />
        </mxCell>
        <mxCell id="SnTEJqyS0EekTpEARaaV-45" value="YES" style="edgeLabel;html=1;align=center;verticalAlign=middle;resizable=0;points=[];" vertex="1" connectable="0" parent="SnTEJqyS0EekTpEARaaV-29">
          <mxGeometry x="-0.28" relative="1" as="geometry">
            <mxPoint as="offset" />
          </mxGeometry>
        </mxCell>
        <mxCell id="SnTEJqyS0EekTpEARaaV-9" value="DAY = 6" style="strokeWidth=2;html=1;shape=mxgraph.flowchart.decision;whiteSpace=wrap;" vertex="1" parent="WIyWlLk6GJQsqaUBKTNV-1">
          <mxGeometry x="1006.25" y="270" width="95" height="100" as="geometry" />
        </mxCell>
        <mxCell id="SnTEJqyS0EekTpEARaaV-30" style="edgeStyle=orthogonalEdgeStyle;rounded=0;orthogonalLoop=1;jettySize=auto;html=1;exitX=0.5;exitY=1;exitDx=0;exitDy=0;exitPerimeter=0;" edge="1" parent="WIyWlLk6GJQsqaUBKTNV-1" source="SnTEJqyS0EekTpEARaaV-10" target="SnTEJqyS0EekTpEARaaV-17">
          <mxGeometry relative="1" as="geometry" />
        </mxCell>
        <mxCell id="SnTEJqyS0EekTpEARaaV-46" value="YES" style="edgeLabel;html=1;align=center;verticalAlign=middle;resizable=0;points=[];" vertex="1" connectable="0" parent="SnTEJqyS0EekTpEARaaV-30">
          <mxGeometry x="-0.208" y="-1" relative="1" as="geometry">
            <mxPoint as="offset" />
          </mxGeometry>
        </mxCell>
        <mxCell id="SnTEJqyS0EekTpEARaaV-10" value="DAY = 7" style="strokeWidth=2;html=1;shape=mxgraph.flowchart.decision;whiteSpace=wrap;" vertex="1" parent="WIyWlLk6GJQsqaUBKTNV-1">
          <mxGeometry x="1193" y="270" width="95" height="100" as="geometry" />
        </mxCell>
        <mxCell id="SnTEJqyS0EekTpEARaaV-11" value="PRINT &quot; MONDAY &quot;" style="shape=parallelogram;html=1;strokeWidth=2;perimeter=parallelogramPerimeter;whiteSpace=wrap;rounded=1;arcSize=12;size=0.23;" vertex="1" parent="WIyWlLk6GJQsqaUBKTNV-1">
          <mxGeometry x="206" y="450" width="207.5" height="60" as="geometry" />
        </mxCell>
        <mxCell id="SnTEJqyS0EekTpEARaaV-12" value="PRINT &quot; SUNDAY &quot;" style="shape=parallelogram;html=1;strokeWidth=2;perimeter=parallelogramPerimeter;whiteSpace=wrap;rounded=1;arcSize=12;size=0.23;" vertex="1" parent="WIyWlLk6GJQsqaUBKTNV-1">
          <mxGeometry x="17.5" y="450" width="207.5" height="60" as="geometry" />
        </mxCell>
        <mxCell id="SnTEJqyS0EekTpEARaaV-54" style="edgeStyle=orthogonalEdgeStyle;rounded=0;orthogonalLoop=1;jettySize=auto;html=1;exitX=0.5;exitY=1;exitDx=0;exitDy=0;" edge="1" parent="WIyWlLk6GJQsqaUBKTNV-1" source="SnTEJqyS0EekTpEARaaV-13">
          <mxGeometry relative="1" as="geometry">
            <mxPoint x="620" y="620" as="targetPoint" />
            <Array as="points">
              <mxPoint x="494" y="610" />
              <mxPoint x="621" y="610" />
              <mxPoint x="621" y="620" />
            </Array>
          </mxGeometry>
        </mxCell>
        <mxCell id="SnTEJqyS0EekTpEARaaV-13" value="PRINT &quot; TUESDAY&quot;" style="shape=parallelogram;html=1;strokeWidth=2;perimeter=parallelogramPerimeter;whiteSpace=wrap;rounded=1;arcSize=12;size=0.23;" vertex="1" parent="WIyWlLk6GJQsqaUBKTNV-1">
          <mxGeometry x="390" y="450" width="207.5" height="60" as="geometry" />
        </mxCell>
        <mxCell id="SnTEJqyS0EekTpEARaaV-14" value="PRINT &quot; WEDNESDAY &quot;" style="shape=parallelogram;html=1;strokeWidth=2;perimeter=parallelogramPerimeter;whiteSpace=wrap;rounded=1;arcSize=12;size=0.23;" vertex="1" parent="WIyWlLk6GJQsqaUBKTNV-1">
          <mxGeometry x="570" y="450" width="207.5" height="60" as="geometry" />
        </mxCell>
        <mxCell id="SnTEJqyS0EekTpEARaaV-15" value="PRINT &quot; THURSDAY &quot;" style="shape=parallelogram;html=1;strokeWidth=2;perimeter=parallelogramPerimeter;whiteSpace=wrap;rounded=1;arcSize=12;size=0.23;" vertex="1" parent="WIyWlLk6GJQsqaUBKTNV-1">
          <mxGeometry x="757.5" y="450" width="207.5" height="60" as="geometry" />
        </mxCell>
        <mxCell id="SnTEJqyS0EekTpEARaaV-57" style="edgeStyle=orthogonalEdgeStyle;rounded=0;orthogonalLoop=1;jettySize=auto;html=1;exitX=0.5;exitY=1;exitDx=0;exitDy=0;" edge="1" parent="WIyWlLk6GJQsqaUBKTNV-1" source="SnTEJqyS0EekTpEARaaV-16">
          <mxGeometry relative="1" as="geometry">
            <mxPoint x="720" y="610" as="targetPoint" />
            <Array as="points">
              <mxPoint x="1054" y="610" />
            </Array>
          </mxGeometry>
        </mxCell>
        <mxCell id="SnTEJqyS0EekTpEARaaV-16" value="PRINT &quot; FRIDAY &quot;" style="shape=parallelogram;html=1;strokeWidth=2;perimeter=parallelogramPerimeter;whiteSpace=wrap;rounded=1;arcSize=12;size=0.23;" vertex="1" parent="WIyWlLk6GJQsqaUBKTNV-1">
          <mxGeometry x="950" y="450" width="207.5" height="60" as="geometry" />
        </mxCell>
        <mxCell id="SnTEJqyS0EekTpEARaaV-17" value="PRINT &quot; SATURDAY &quot;" style="shape=parallelogram;html=1;strokeWidth=2;perimeter=parallelogramPerimeter;whiteSpace=wrap;rounded=1;arcSize=12;size=0.23;" vertex="1" parent="WIyWlLk6GJQsqaUBKTNV-1">
          <mxGeometry x="1137" y="450" width="207.5" height="60" as="geometry" />
        </mxCell>
        <mxCell id="SnTEJqyS0EekTpEARaaV-18" style="edgeStyle=orthogonalEdgeStyle;rounded=0;orthogonalLoop=1;jettySize=auto;html=1;exitX=1;exitY=0.5;exitDx=0;exitDy=0;exitPerimeter=0;entryX=0;entryY=0.5;entryDx=0;entryDy=0;entryPerimeter=0;" edge="1" parent="WIyWlLk6GJQsqaUBKTNV-1" source="SnTEJqyS0EekTpEARaaV-3" target="SnTEJqyS0EekTpEARaaV-5">
          <mxGeometry relative="1" as="geometry" />
        </mxCell>
        <mxCell id="SnTEJqyS0EekTpEARaaV-39" value="NO" style="edgeLabel;html=1;align=center;verticalAlign=middle;resizable=0;points=[];" vertex="1" connectable="0" parent="SnTEJqyS0EekTpEARaaV-18">
          <mxGeometry x="-0.1873" y="-1" relative="1" as="geometry">
            <mxPoint as="offset" />
          </mxGeometry>
        </mxCell>
        <mxCell id="SnTEJqyS0EekTpEARaaV-20" style="edgeStyle=orthogonalEdgeStyle;rounded=0;orthogonalLoop=1;jettySize=auto;html=1;exitX=1;exitY=0.5;exitDx=0;exitDy=0;exitPerimeter=0;entryX=0;entryY=0.5;entryDx=0;entryDy=0;entryPerimeter=0;" edge="1" parent="WIyWlLk6GJQsqaUBKTNV-1" source="SnTEJqyS0EekTpEARaaV-6" target="SnTEJqyS0EekTpEARaaV-7">
          <mxGeometry relative="1" as="geometry" />
        </mxCell>
        <mxCell id="SnTEJqyS0EekTpEARaaV-37" value="NO" style="edgeLabel;html=1;align=center;verticalAlign=middle;resizable=0;points=[];" vertex="1" connectable="0" parent="SnTEJqyS0EekTpEARaaV-20">
          <mxGeometry x="-0.1118" y="-3" relative="1" as="geometry">
            <mxPoint as="offset" />
          </mxGeometry>
        </mxCell>
        <mxCell id="SnTEJqyS0EekTpEARaaV-22" style="edgeStyle=orthogonalEdgeStyle;rounded=0;orthogonalLoop=1;jettySize=auto;html=1;exitX=1;exitY=0.5;exitDx=0;exitDy=0;exitPerimeter=0;entryX=0;entryY=0.5;entryDx=0;entryDy=0;entryPerimeter=0;" edge="1" parent="WIyWlLk6GJQsqaUBKTNV-1" source="SnTEJqyS0EekTpEARaaV-8" target="SnTEJqyS0EekTpEARaaV-9">
          <mxGeometry relative="1" as="geometry" />
        </mxCell>
        <mxCell id="SnTEJqyS0EekTpEARaaV-35" value="NO" style="edgeLabel;html=1;align=center;verticalAlign=middle;resizable=0;points=[];" vertex="1" connectable="0" parent="SnTEJqyS0EekTpEARaaV-22">
          <mxGeometry x="-0.0882" y="-3" relative="1" as="geometry">
            <mxPoint as="offset" />
          </mxGeometry>
        </mxCell>
        <mxCell id="SnTEJqyS0EekTpEARaaV-23" style="edgeStyle=orthogonalEdgeStyle;rounded=0;orthogonalLoop=1;jettySize=auto;html=1;exitX=1;exitY=0.5;exitDx=0;exitDy=0;exitPerimeter=0;entryX=0;entryY=0.5;entryDx=0;entryDy=0;entryPerimeter=0;" edge="1" parent="WIyWlLk6GJQsqaUBKTNV-1" source="SnTEJqyS0EekTpEARaaV-9" target="SnTEJqyS0EekTpEARaaV-10">
          <mxGeometry relative="1" as="geometry" />
        </mxCell>
        <mxCell id="SnTEJqyS0EekTpEARaaV-34" value="NO" style="edgeLabel;html=1;align=center;verticalAlign=middle;resizable=0;points=[];" vertex="1" connectable="0" parent="SnTEJqyS0EekTpEARaaV-23">
          <mxGeometry x="-0.0856" y="-1" relative="1" as="geometry">
            <mxPoint as="offset" />
          </mxGeometry>
        </mxCell>
        <mxCell id="SnTEJqyS0EekTpEARaaV-49" style="edgeStyle=orthogonalEdgeStyle;rounded=0;orthogonalLoop=1;jettySize=auto;html=1;exitX=1;exitY=0.5;exitDx=0;exitDy=0;entryX=1;entryY=0.5;entryDx=0;entryDy=0;exitPerimeter=0;" edge="1" parent="WIyWlLk6GJQsqaUBKTNV-1" source="SnTEJqyS0EekTpEARaaV-10" target="SnTEJqyS0EekTpEARaaV-47">
          <mxGeometry relative="1" as="geometry">
            <mxPoint x="1473.75" y="290" as="sourcePoint" />
            <Array as="points">
              <mxPoint x="1474" y="320" />
              <mxPoint x="1474" y="200" />
            </Array>
          </mxGeometry>
        </mxCell>
        <mxCell id="SnTEJqyS0EekTpEARaaV-59" value="NO" style="edgeLabel;html=1;align=center;verticalAlign=middle;resizable=0;points=[];" vertex="1" connectable="0" parent="SnTEJqyS0EekTpEARaaV-49">
          <mxGeometry x="-0.8578" y="-4" relative="1" as="geometry">
            <mxPoint x="-1" as="offset" />
          </mxGeometry>
        </mxCell>
        <mxCell id="SnTEJqyS0EekTpEARaaV-50" style="edgeStyle=orthogonalEdgeStyle;rounded=0;orthogonalLoop=1;jettySize=auto;html=1;exitX=0;exitY=0.5;exitDx=0;exitDy=0;entryX=1;entryY=0.5;entryDx=0;entryDy=0;" edge="1" parent="WIyWlLk6GJQsqaUBKTNV-1" source="SnTEJqyS0EekTpEARaaV-47" target="SnTEJqyS0EekTpEARaaV-1">
          <mxGeometry relative="1" as="geometry" />
        </mxCell>
        <mxCell id="SnTEJqyS0EekTpEARaaV-47" value="PRINT &quot; WRONG DAY &quot;" style="shape=parallelogram;html=1;strokeWidth=2;perimeter=parallelogramPerimeter;whiteSpace=wrap;rounded=1;arcSize=12;size=0.23;" vertex="1" parent="WIyWlLk6GJQsqaUBKTNV-1">
          <mxGeometry x="541.25" y="170" width="207.5" height="60" as="geometry" />
        </mxCell>
        <mxCell id="SnTEJqyS0EekTpEARaaV-51" value="END" style="strokeWidth=2;html=1;shape=mxgraph.flowchart.terminator;whiteSpace=wrap;" vertex="1" parent="WIyWlLk6GJQsqaUBKTNV-1">
          <mxGeometry x="623.75" y="585" width="100" height="60" as="geometry" />
        </mxCell>
        <mxCell id="SnTEJqyS0EekTpEARaaV-52" style="edgeStyle=orthogonalEdgeStyle;rounded=0;orthogonalLoop=1;jettySize=auto;html=1;exitX=0.5;exitY=1;exitDx=0;exitDy=0;entryX=0;entryY=0.5;entryDx=0;entryDy=0;entryPerimeter=0;" edge="1" parent="WIyWlLk6GJQsqaUBKTNV-1" source="SnTEJqyS0EekTpEARaaV-12" target="SnTEJqyS0EekTpEARaaV-51">
          <mxGeometry relative="1" as="geometry" />
        </mxCell>
        <mxCell id="SnTEJqyS0EekTpEARaaV-53" style="edgeStyle=orthogonalEdgeStyle;rounded=0;orthogonalLoop=1;jettySize=auto;html=1;exitX=0.5;exitY=1;exitDx=0;exitDy=0;entryX=0;entryY=0.5;entryDx=0;entryDy=0;entryPerimeter=0;" edge="1" parent="WIyWlLk6GJQsqaUBKTNV-1" source="SnTEJqyS0EekTpEARaaV-11" target="SnTEJqyS0EekTpEARaaV-51">
          <mxGeometry relative="1" as="geometry" />
        </mxCell>
        <mxCell id="SnTEJqyS0EekTpEARaaV-55" style="edgeStyle=orthogonalEdgeStyle;rounded=0;orthogonalLoop=1;jettySize=auto;html=1;exitX=0.5;exitY=1;exitDx=0;exitDy=0;entryX=0.5;entryY=0;entryDx=0;entryDy=0;entryPerimeter=0;" edge="1" parent="WIyWlLk6GJQsqaUBKTNV-1" source="SnTEJqyS0EekTpEARaaV-14" target="SnTEJqyS0EekTpEARaaV-51">
          <mxGeometry relative="1" as="geometry" />
        </mxCell>
        <mxCell id="SnTEJqyS0EekTpEARaaV-56" style="edgeStyle=orthogonalEdgeStyle;rounded=0;orthogonalLoop=1;jettySize=auto;html=1;exitX=0.5;exitY=1;exitDx=0;exitDy=0;entryX=1;entryY=0.5;entryDx=0;entryDy=0;entryPerimeter=0;" edge="1" parent="WIyWlLk6GJQsqaUBKTNV-1" source="SnTEJqyS0EekTpEARaaV-15" target="SnTEJqyS0EekTpEARaaV-51">
          <mxGeometry relative="1" as="geometry" />
        </mxCell>
        <mxCell id="SnTEJqyS0EekTpEARaaV-58" style="edgeStyle=orthogonalEdgeStyle;rounded=0;orthogonalLoop=1;jettySize=auto;html=1;exitX=0.5;exitY=1;exitDx=0;exitDy=0;entryX=1;entryY=0.5;entryDx=0;entryDy=0;entryPerimeter=0;" edge="1" parent="WIyWlLk6GJQsqaUBKTNV-1" source="SnTEJqyS0EekTpEARaaV-17" target="SnTEJqyS0EekTpEARaaV-51">
          <mxGeometry relative="1" as="geometry" />
        </mxCell>
        <mxCell id="SnTEJqyS0EekTpEARaaV-60" value="" style="endArrow=none;html=1;rounded=0;" edge="1" parent="WIyWlLk6GJQsqaUBKTNV-1">
          <mxGeometry width="50" height="50" relative="1" as="geometry">
            <mxPoint y="720" as="sourcePoint" />
            <mxPoint x="1420" y="719" as="targetPoint" />
          </mxGeometry>
        </mxCell>
        <mxCell id="SnTEJqyS0EekTpEARaaV-116" style="edgeStyle=orthogonalEdgeStyle;rounded=0;orthogonalLoop=1;jettySize=auto;html=1;exitX=0.5;exitY=1;exitDx=0;exitDy=0;exitPerimeter=0;entryX=0.5;entryY=0;entryDx=0;entryDy=0;" edge="1" parent="WIyWlLk6GJQsqaUBKTNV-1" target="SnTEJqyS0EekTpEARaaV-118">
          <mxGeometry relative="1" as="geometry">
            <mxPoint x="165" y="800" as="sourcePoint" />
          </mxGeometry>
        </mxCell>
        <mxCell id="SnTEJqyS0EekTpEARaaV-117" value="START" style="strokeWidth=2;html=1;shape=mxgraph.flowchart.start_1;whiteSpace=wrap;" vertex="1" parent="WIyWlLk6GJQsqaUBKTNV-1">
          <mxGeometry x="117.5" y="740" width="100" height="60" as="geometry" />
        </mxCell>
        <mxCell id="SnTEJqyS0EekTpEARaaV-118" value="READ DAY" style="shape=parallelogram;html=1;strokeWidth=2;perimeter=parallelogramPerimeter;whiteSpace=wrap;rounded=1;arcSize=12;size=0.23;" vertex="1" parent="WIyWlLk6GJQsqaUBKTNV-1">
          <mxGeometry x="60" y="850" width="210" height="60" as="geometry" />
        </mxCell>
        <mxCell id="SnTEJqyS0EekTpEARaaV-119" style="edgeStyle=orthogonalEdgeStyle;rounded=0;orthogonalLoop=1;jettySize=auto;html=1;exitX=0.5;exitY=1;exitDx=0;exitDy=0;exitPerimeter=0;" edge="1" parent="WIyWlLk6GJQsqaUBKTNV-1" source="SnTEJqyS0EekTpEARaaV-121" target="SnTEJqyS0EekTpEARaaV-146">
          <mxGeometry relative="1" as="geometry" />
        </mxCell>
        <mxCell id="SnTEJqyS0EekTpEARaaV-120" value="YES" style="edgeLabel;html=1;align=center;verticalAlign=middle;resizable=0;points=[];" vertex="1" connectable="0" parent="SnTEJqyS0EekTpEARaaV-119">
          <mxGeometry x="-0.4717" relative="1" as="geometry">
            <mxPoint as="offset" />
          </mxGeometry>
        </mxCell>
        <mxCell id="SnTEJqyS0EekTpEARaaV-121" value="DAY = 1" style="strokeWidth=2;html=1;shape=mxgraph.flowchart.decision;whiteSpace=wrap;" vertex="1" parent="WIyWlLk6GJQsqaUBKTNV-1">
          <mxGeometry x="117.5" y="1170" width="95" height="100" as="geometry" />
        </mxCell>
        <mxCell id="SnTEJqyS0EekTpEARaaV-123" style="edgeStyle=orthogonalEdgeStyle;rounded=0;orthogonalLoop=1;jettySize=auto;html=1;exitX=1;exitY=0.5;exitDx=0;exitDy=0;exitPerimeter=0;" edge="1" parent="WIyWlLk6GJQsqaUBKTNV-1" source="SnTEJqyS0EekTpEARaaV-127" target="SnTEJqyS0EekTpEARaaV-130">
          <mxGeometry relative="1" as="geometry" />
        </mxCell>
        <mxCell id="SnTEJqyS0EekTpEARaaV-124" value="NO" style="edgeLabel;html=1;align=center;verticalAlign=middle;resizable=0;points=[];" vertex="1" connectable="0" parent="SnTEJqyS0EekTpEARaaV-123">
          <mxGeometry x="-0.1742" y="-2" relative="1" as="geometry">
            <mxPoint as="offset" />
          </mxGeometry>
        </mxCell>
        <mxCell id="SnTEJqyS0EekTpEARaaV-125" style="edgeStyle=orthogonalEdgeStyle;rounded=0;orthogonalLoop=1;jettySize=auto;html=1;exitX=0.5;exitY=1;exitDx=0;exitDy=0;exitPerimeter=0;entryX=0.5;entryY=0;entryDx=0;entryDy=0;" edge="1" parent="WIyWlLk6GJQsqaUBKTNV-1" source="SnTEJqyS0EekTpEARaaV-127" target="SnTEJqyS0EekTpEARaaV-145">
          <mxGeometry relative="1" as="geometry" />
        </mxCell>
        <mxCell id="SnTEJqyS0EekTpEARaaV-126" value="YES" style="edgeLabel;html=1;align=center;verticalAlign=middle;resizable=0;points=[];" vertex="1" connectable="0" parent="SnTEJqyS0EekTpEARaaV-125">
          <mxGeometry x="-0.28" y="-1" relative="1" as="geometry">
            <mxPoint as="offset" />
          </mxGeometry>
        </mxCell>
        <mxCell id="SnTEJqyS0EekTpEARaaV-127" value="DAY = 2" style="strokeWidth=2;html=1;shape=mxgraph.flowchart.decision;whiteSpace=wrap;" vertex="1" parent="WIyWlLk6GJQsqaUBKTNV-1">
          <mxGeometry x="307.25" y="1170" width="95" height="100" as="geometry" />
        </mxCell>
        <mxCell id="SnTEJqyS0EekTpEARaaV-128" style="edgeStyle=orthogonalEdgeStyle;rounded=0;orthogonalLoop=1;jettySize=auto;html=1;exitX=0.5;exitY=1;exitDx=0;exitDy=0;exitPerimeter=0;entryX=0.5;entryY=0;entryDx=0;entryDy=0;" edge="1" parent="WIyWlLk6GJQsqaUBKTNV-1" source="SnTEJqyS0EekTpEARaaV-130" target="SnTEJqyS0EekTpEARaaV-148">
          <mxGeometry relative="1" as="geometry" />
        </mxCell>
        <mxCell id="SnTEJqyS0EekTpEARaaV-129" value="YES" style="edgeLabel;html=1;align=center;verticalAlign=middle;resizable=0;points=[];" vertex="1" connectable="0" parent="SnTEJqyS0EekTpEARaaV-128">
          <mxGeometry x="-0.28" y="2" relative="1" as="geometry">
            <mxPoint as="offset" />
          </mxGeometry>
        </mxCell>
        <mxCell id="SnTEJqyS0EekTpEARaaV-130" value="DAY = 3" style="strokeWidth=2;html=1;shape=mxgraph.flowchart.decision;whiteSpace=wrap;" vertex="1" parent="WIyWlLk6GJQsqaUBKTNV-1">
          <mxGeometry x="491.25" y="1170" width="95" height="100" as="geometry" />
        </mxCell>
        <mxCell id="SnTEJqyS0EekTpEARaaV-131" style="edgeStyle=orthogonalEdgeStyle;rounded=0;orthogonalLoop=1;jettySize=auto;html=1;exitX=1;exitY=0.5;exitDx=0;exitDy=0;exitPerimeter=0;" edge="1" parent="WIyWlLk6GJQsqaUBKTNV-1" source="SnTEJqyS0EekTpEARaaV-135" target="SnTEJqyS0EekTpEARaaV-138">
          <mxGeometry relative="1" as="geometry" />
        </mxCell>
        <mxCell id="SnTEJqyS0EekTpEARaaV-132" value="NO" style="edgeLabel;html=1;align=center;verticalAlign=middle;resizable=0;points=[];" vertex="1" connectable="0" parent="SnTEJqyS0EekTpEARaaV-131">
          <mxGeometry x="-0.1795" y="1" relative="1" as="geometry">
            <mxPoint as="offset" />
          </mxGeometry>
        </mxCell>
        <mxCell id="SnTEJqyS0EekTpEARaaV-133" style="edgeStyle=orthogonalEdgeStyle;rounded=0;orthogonalLoop=1;jettySize=auto;html=1;exitX=0.5;exitY=1;exitDx=0;exitDy=0;exitPerimeter=0;" edge="1" parent="WIyWlLk6GJQsqaUBKTNV-1" source="SnTEJqyS0EekTpEARaaV-135" target="SnTEJqyS0EekTpEARaaV-149">
          <mxGeometry relative="1" as="geometry" />
        </mxCell>
        <mxCell id="SnTEJqyS0EekTpEARaaV-134" value="YES" style="edgeLabel;html=1;align=center;verticalAlign=middle;resizable=0;points=[];" vertex="1" connectable="0" parent="SnTEJqyS0EekTpEARaaV-133">
          <mxGeometry x="-0.33" relative="1" as="geometry">
            <mxPoint as="offset" />
          </mxGeometry>
        </mxCell>
        <mxCell id="SnTEJqyS0EekTpEARaaV-135" value="DAY = 4" style="strokeWidth=2;html=1;shape=mxgraph.flowchart.decision;whiteSpace=wrap;" vertex="1" parent="WIyWlLk6GJQsqaUBKTNV-1">
          <mxGeometry x="671.25" y="1170" width="95" height="100" as="geometry" />
        </mxCell>
        <mxCell id="SnTEJqyS0EekTpEARaaV-136" style="edgeStyle=orthogonalEdgeStyle;rounded=0;orthogonalLoop=1;jettySize=auto;html=1;exitX=0.5;exitY=1;exitDx=0;exitDy=0;exitPerimeter=0;" edge="1" parent="WIyWlLk6GJQsqaUBKTNV-1" source="SnTEJqyS0EekTpEARaaV-138" target="SnTEJqyS0EekTpEARaaV-150">
          <mxGeometry relative="1" as="geometry" />
        </mxCell>
        <mxCell id="SnTEJqyS0EekTpEARaaV-137" value="YES" style="edgeLabel;html=1;align=center;verticalAlign=middle;resizable=0;points=[];" vertex="1" connectable="0" parent="SnTEJqyS0EekTpEARaaV-136">
          <mxGeometry x="-0.2799" y="5" relative="1" as="geometry">
            <mxPoint as="offset" />
          </mxGeometry>
        </mxCell>
        <mxCell id="SnTEJqyS0EekTpEARaaV-138" value="DAY = 5" style="strokeWidth=2;html=1;shape=mxgraph.flowchart.decision;whiteSpace=wrap;" vertex="1" parent="WIyWlLk6GJQsqaUBKTNV-1">
          <mxGeometry x="858.75" y="1170" width="95" height="100" as="geometry" />
        </mxCell>
        <mxCell id="SnTEJqyS0EekTpEARaaV-139" style="edgeStyle=orthogonalEdgeStyle;rounded=0;orthogonalLoop=1;jettySize=auto;html=1;exitX=0.5;exitY=1;exitDx=0;exitDy=0;exitPerimeter=0;entryX=0.5;entryY=0;entryDx=0;entryDy=0;" edge="1" parent="WIyWlLk6GJQsqaUBKTNV-1" source="SnTEJqyS0EekTpEARaaV-141" target="SnTEJqyS0EekTpEARaaV-152">
          <mxGeometry relative="1" as="geometry" />
        </mxCell>
        <mxCell id="SnTEJqyS0EekTpEARaaV-140" value="YES" style="edgeLabel;html=1;align=center;verticalAlign=middle;resizable=0;points=[];" vertex="1" connectable="0" parent="SnTEJqyS0EekTpEARaaV-139">
          <mxGeometry x="-0.28" relative="1" as="geometry">
            <mxPoint as="offset" />
          </mxGeometry>
        </mxCell>
        <mxCell id="SnTEJqyS0EekTpEARaaV-141" value="DAY = 6" style="strokeWidth=2;html=1;shape=mxgraph.flowchart.decision;whiteSpace=wrap;" vertex="1" parent="WIyWlLk6GJQsqaUBKTNV-1">
          <mxGeometry x="1051.25" y="1170" width="95" height="100" as="geometry" />
        </mxCell>
        <mxCell id="SnTEJqyS0EekTpEARaaV-142" style="edgeStyle=orthogonalEdgeStyle;rounded=0;orthogonalLoop=1;jettySize=auto;html=1;exitX=0.5;exitY=1;exitDx=0;exitDy=0;exitPerimeter=0;" edge="1" parent="WIyWlLk6GJQsqaUBKTNV-1" source="SnTEJqyS0EekTpEARaaV-144" target="SnTEJqyS0EekTpEARaaV-153">
          <mxGeometry relative="1" as="geometry" />
        </mxCell>
        <mxCell id="SnTEJqyS0EekTpEARaaV-143" value="YES" style="edgeLabel;html=1;align=center;verticalAlign=middle;resizable=0;points=[];" vertex="1" connectable="0" parent="SnTEJqyS0EekTpEARaaV-142">
          <mxGeometry x="-0.208" y="-1" relative="1" as="geometry">
            <mxPoint as="offset" />
          </mxGeometry>
        </mxCell>
        <mxCell id="SnTEJqyS0EekTpEARaaV-144" value="DAY = 7" style="strokeWidth=2;html=1;shape=mxgraph.flowchart.decision;whiteSpace=wrap;" vertex="1" parent="WIyWlLk6GJQsqaUBKTNV-1">
          <mxGeometry x="1238" y="1170" width="95" height="100" as="geometry" />
        </mxCell>
        <mxCell id="SnTEJqyS0EekTpEARaaV-145" value="PRINT &quot; MONDAY &quot;" style="shape=parallelogram;html=1;strokeWidth=2;perimeter=parallelogramPerimeter;whiteSpace=wrap;rounded=1;arcSize=12;size=0.23;" vertex="1" parent="WIyWlLk6GJQsqaUBKTNV-1">
          <mxGeometry x="251" y="1350" width="207.5" height="60" as="geometry" />
        </mxCell>
        <mxCell id="SnTEJqyS0EekTpEARaaV-146" value="PRINT &quot; SUNDAY &quot;" style="shape=parallelogram;html=1;strokeWidth=2;perimeter=parallelogramPerimeter;whiteSpace=wrap;rounded=1;arcSize=12;size=0.23;" vertex="1" parent="WIyWlLk6GJQsqaUBKTNV-1">
          <mxGeometry x="62.5" y="1350" width="207.5" height="60" as="geometry" />
        </mxCell>
        <mxCell id="SnTEJqyS0EekTpEARaaV-147" style="edgeStyle=orthogonalEdgeStyle;rounded=0;orthogonalLoop=1;jettySize=auto;html=1;exitX=0.5;exitY=1;exitDx=0;exitDy=0;" edge="1" parent="WIyWlLk6GJQsqaUBKTNV-1" source="SnTEJqyS0EekTpEARaaV-148">
          <mxGeometry relative="1" as="geometry">
            <mxPoint x="665" y="1520" as="targetPoint" />
            <Array as="points">
              <mxPoint x="539" y="1520" />
            </Array>
          </mxGeometry>
        </mxCell>
        <mxCell id="SnTEJqyS0EekTpEARaaV-148" value="PRINT &quot; TUESDAY&quot;" style="shape=parallelogram;html=1;strokeWidth=2;perimeter=parallelogramPerimeter;whiteSpace=wrap;rounded=1;arcSize=12;size=0.23;" vertex="1" parent="WIyWlLk6GJQsqaUBKTNV-1">
          <mxGeometry x="435" y="1350" width="207.5" height="60" as="geometry" />
        </mxCell>
        <mxCell id="SnTEJqyS0EekTpEARaaV-149" value="PRINT &quot; WEDNESDAY &quot;" style="shape=parallelogram;html=1;strokeWidth=2;perimeter=parallelogramPerimeter;whiteSpace=wrap;rounded=1;arcSize=12;size=0.23;" vertex="1" parent="WIyWlLk6GJQsqaUBKTNV-1">
          <mxGeometry x="615" y="1350" width="207.5" height="60" as="geometry" />
        </mxCell>
        <mxCell id="SnTEJqyS0EekTpEARaaV-150" value="PRINT &quot; THURSDAY &quot;" style="shape=parallelogram;html=1;strokeWidth=2;perimeter=parallelogramPerimeter;whiteSpace=wrap;rounded=1;arcSize=12;size=0.23;" vertex="1" parent="WIyWlLk6GJQsqaUBKTNV-1">
          <mxGeometry x="802.5" y="1350" width="207.5" height="60" as="geometry" />
        </mxCell>
        <mxCell id="SnTEJqyS0EekTpEARaaV-151" style="edgeStyle=orthogonalEdgeStyle;rounded=0;orthogonalLoop=1;jettySize=auto;html=1;exitX=0.5;exitY=1;exitDx=0;exitDy=0;" edge="1" parent="WIyWlLk6GJQsqaUBKTNV-1" source="SnTEJqyS0EekTpEARaaV-152">
          <mxGeometry relative="1" as="geometry">
            <mxPoint x="765" y="1510" as="targetPoint" />
            <Array as="points">
              <mxPoint x="1099" y="1510" />
            </Array>
          </mxGeometry>
        </mxCell>
        <mxCell id="SnTEJqyS0EekTpEARaaV-152" value="PRINT &quot; FRIDAY &quot;" style="shape=parallelogram;html=1;strokeWidth=2;perimeter=parallelogramPerimeter;whiteSpace=wrap;rounded=1;arcSize=12;size=0.23;" vertex="1" parent="WIyWlLk6GJQsqaUBKTNV-1">
          <mxGeometry x="995" y="1350" width="207.5" height="60" as="geometry" />
        </mxCell>
        <mxCell id="SnTEJqyS0EekTpEARaaV-153" value="PRINT &quot; SATURDAY &quot;" style="shape=parallelogram;html=1;strokeWidth=2;perimeter=parallelogramPerimeter;whiteSpace=wrap;rounded=1;arcSize=12;size=0.23;" vertex="1" parent="WIyWlLk6GJQsqaUBKTNV-1">
          <mxGeometry x="1182" y="1350" width="207.5" height="60" as="geometry" />
        </mxCell>
        <mxCell id="SnTEJqyS0EekTpEARaaV-154" style="edgeStyle=orthogonalEdgeStyle;rounded=0;orthogonalLoop=1;jettySize=auto;html=1;exitX=1;exitY=0.5;exitDx=0;exitDy=0;exitPerimeter=0;entryX=0;entryY=0.5;entryDx=0;entryDy=0;entryPerimeter=0;" edge="1" parent="WIyWlLk6GJQsqaUBKTNV-1" source="SnTEJqyS0EekTpEARaaV-121" target="SnTEJqyS0EekTpEARaaV-127">
          <mxGeometry relative="1" as="geometry" />
        </mxCell>
        <mxCell id="SnTEJqyS0EekTpEARaaV-155" value="NO" style="edgeLabel;html=1;align=center;verticalAlign=middle;resizable=0;points=[];" vertex="1" connectable="0" parent="SnTEJqyS0EekTpEARaaV-154">
          <mxGeometry x="-0.1873" y="-1" relative="1" as="geometry">
            <mxPoint as="offset" />
          </mxGeometry>
        </mxCell>
        <mxCell id="SnTEJqyS0EekTpEARaaV-156" style="edgeStyle=orthogonalEdgeStyle;rounded=0;orthogonalLoop=1;jettySize=auto;html=1;exitX=1;exitY=0.5;exitDx=0;exitDy=0;exitPerimeter=0;entryX=0;entryY=0.5;entryDx=0;entryDy=0;entryPerimeter=0;" edge="1" parent="WIyWlLk6GJQsqaUBKTNV-1" source="SnTEJqyS0EekTpEARaaV-130" target="SnTEJqyS0EekTpEARaaV-135">
          <mxGeometry relative="1" as="geometry" />
        </mxCell>
        <mxCell id="SnTEJqyS0EekTpEARaaV-157" value="NO" style="edgeLabel;html=1;align=center;verticalAlign=middle;resizable=0;points=[];" vertex="1" connectable="0" parent="SnTEJqyS0EekTpEARaaV-156">
          <mxGeometry x="-0.1118" y="-3" relative="1" as="geometry">
            <mxPoint as="offset" />
          </mxGeometry>
        </mxCell>
        <mxCell id="SnTEJqyS0EekTpEARaaV-158" style="edgeStyle=orthogonalEdgeStyle;rounded=0;orthogonalLoop=1;jettySize=auto;html=1;exitX=1;exitY=0.5;exitDx=0;exitDy=0;exitPerimeter=0;entryX=0;entryY=0.5;entryDx=0;entryDy=0;entryPerimeter=0;" edge="1" parent="WIyWlLk6GJQsqaUBKTNV-1" source="SnTEJqyS0EekTpEARaaV-138" target="SnTEJqyS0EekTpEARaaV-141">
          <mxGeometry relative="1" as="geometry" />
        </mxCell>
        <mxCell id="SnTEJqyS0EekTpEARaaV-159" value="NO" style="edgeLabel;html=1;align=center;verticalAlign=middle;resizable=0;points=[];" vertex="1" connectable="0" parent="SnTEJqyS0EekTpEARaaV-158">
          <mxGeometry x="-0.0882" y="-3" relative="1" as="geometry">
            <mxPoint as="offset" />
          </mxGeometry>
        </mxCell>
        <mxCell id="SnTEJqyS0EekTpEARaaV-160" style="edgeStyle=orthogonalEdgeStyle;rounded=0;orthogonalLoop=1;jettySize=auto;html=1;exitX=1;exitY=0.5;exitDx=0;exitDy=0;exitPerimeter=0;entryX=0;entryY=0.5;entryDx=0;entryDy=0;entryPerimeter=0;" edge="1" parent="WIyWlLk6GJQsqaUBKTNV-1" source="SnTEJqyS0EekTpEARaaV-141" target="SnTEJqyS0EekTpEARaaV-144">
          <mxGeometry relative="1" as="geometry" />
        </mxCell>
        <mxCell id="SnTEJqyS0EekTpEARaaV-161" value="NO" style="edgeLabel;html=1;align=center;verticalAlign=middle;resizable=0;points=[];" vertex="1" connectable="0" parent="SnTEJqyS0EekTpEARaaV-160">
          <mxGeometry x="-0.0856" y="-1" relative="1" as="geometry">
            <mxPoint as="offset" />
          </mxGeometry>
        </mxCell>
        <mxCell id="SnTEJqyS0EekTpEARaaV-166" style="edgeStyle=orthogonalEdgeStyle;rounded=0;orthogonalLoop=1;jettySize=auto;html=1;exitX=0.5;exitY=1;exitDx=0;exitDy=0;entryX=0;entryY=0.5;entryDx=0;entryDy=0;entryPerimeter=0;" edge="1" parent="WIyWlLk6GJQsqaUBKTNV-1" source="SnTEJqyS0EekTpEARaaV-146">
          <mxGeometry relative="1" as="geometry">
            <mxPoint x="666" y="1515" as="targetPoint" />
            <Array as="points">
              <mxPoint x="175" y="1520" />
              <mxPoint x="667" y="1520" />
              <mxPoint x="667" y="1515" />
            </Array>
          </mxGeometry>
        </mxCell>
        <mxCell id="SnTEJqyS0EekTpEARaaV-167" style="edgeStyle=orthogonalEdgeStyle;rounded=0;orthogonalLoop=1;jettySize=auto;html=1;exitX=0.5;exitY=1;exitDx=0;exitDy=0;entryX=0;entryY=0.5;entryDx=0;entryDy=0;entryPerimeter=0;" edge="1" parent="WIyWlLk6GJQsqaUBKTNV-1" source="SnTEJqyS0EekTpEARaaV-145">
          <mxGeometry relative="1" as="geometry">
            <mxPoint x="666" y="1515" as="targetPoint" />
            <Array as="points">
              <mxPoint x="355" y="1520" />
              <mxPoint x="667" y="1520" />
              <mxPoint x="667" y="1515" />
            </Array>
          </mxGeometry>
        </mxCell>
        <mxCell id="SnTEJqyS0EekTpEARaaV-169" style="edgeStyle=orthogonalEdgeStyle;rounded=0;orthogonalLoop=1;jettySize=auto;html=1;exitX=0.5;exitY=1;exitDx=0;exitDy=0;entryX=1;entryY=0.5;entryDx=0;entryDy=0;entryPerimeter=0;" edge="1" parent="WIyWlLk6GJQsqaUBKTNV-1" source="SnTEJqyS0EekTpEARaaV-150">
          <mxGeometry relative="1" as="geometry">
            <mxPoint x="766" y="1515" as="targetPoint" />
            <Array as="points">
              <mxPoint x="906" y="1510" />
              <mxPoint x="767" y="1510" />
              <mxPoint x="767" y="1515" />
            </Array>
          </mxGeometry>
        </mxCell>
        <mxCell id="SnTEJqyS0EekTpEARaaV-170" style="edgeStyle=orthogonalEdgeStyle;rounded=0;orthogonalLoop=1;jettySize=auto;html=1;exitX=0.5;exitY=1;exitDx=0;exitDy=0;entryX=1;entryY=0.5;entryDx=0;entryDy=0;entryPerimeter=0;" edge="1" parent="WIyWlLk6GJQsqaUBKTNV-1" source="SnTEJqyS0EekTpEARaaV-153">
          <mxGeometry relative="1" as="geometry">
            <mxPoint x="766" y="1515" as="targetPoint" />
            <Array as="points">
              <mxPoint x="1286" y="1510" />
              <mxPoint x="767" y="1510" />
              <mxPoint x="767" y="1515" />
            </Array>
          </mxGeometry>
        </mxCell>
        <mxCell id="SnTEJqyS0EekTpEARaaV-171" value="END" style="strokeWidth=2;html=1;shape=mxgraph.flowchart.terminator;whiteSpace=wrap;" vertex="1" parent="WIyWlLk6GJQsqaUBKTNV-1">
          <mxGeometry x="668.75" y="1490" width="100" height="60" as="geometry" />
        </mxCell>
        <mxCell id="SnTEJqyS0EekTpEARaaV-172" style="edgeStyle=orthogonalEdgeStyle;rounded=0;orthogonalLoop=1;jettySize=auto;html=1;exitX=0.5;exitY=1;exitDx=0;exitDy=0;entryX=0.5;entryY=0;entryDx=0;entryDy=0;entryPerimeter=0;" edge="1" parent="WIyWlLk6GJQsqaUBKTNV-1" source="SnTEJqyS0EekTpEARaaV-149" target="SnTEJqyS0EekTpEARaaV-171">
          <mxGeometry relative="1" as="geometry" />
        </mxCell>
        <mxCell id="SnTEJqyS0EekTpEARaaV-178" style="edgeStyle=orthogonalEdgeStyle;rounded=0;orthogonalLoop=1;jettySize=auto;html=1;exitX=1;exitY=0.5;exitDx=0;exitDy=0;exitPerimeter=0;entryX=0;entryY=0.5;entryDx=0;entryDy=0;" edge="1" parent="WIyWlLk6GJQsqaUBKTNV-1" source="SnTEJqyS0EekTpEARaaV-173" target="SnTEJqyS0EekTpEARaaV-177">
          <mxGeometry relative="1" as="geometry" />
        </mxCell>
        <mxCell id="SnTEJqyS0EekTpEARaaV-179" value="NO" style="edgeLabel;html=1;align=center;verticalAlign=middle;resizable=0;points=[];" vertex="1" connectable="0" parent="SnTEJqyS0EekTpEARaaV-178">
          <mxGeometry x="-0.1405" y="3" relative="1" as="geometry">
            <mxPoint as="offset" />
          </mxGeometry>
        </mxCell>
        <mxCell id="SnTEJqyS0EekTpEARaaV-173" value="DAY &amp;gt;= 1 AND DAY&amp;lt;= 7" style="strokeWidth=2;html=1;shape=mxgraph.flowchart.decision;whiteSpace=wrap;" vertex="1" parent="WIyWlLk6GJQsqaUBKTNV-1">
          <mxGeometry x="72.5" y="980" width="185" height="120" as="geometry" />
        </mxCell>
        <mxCell id="SnTEJqyS0EekTpEARaaV-174" style="edgeStyle=orthogonalEdgeStyle;rounded=0;orthogonalLoop=1;jettySize=auto;html=1;exitX=0.5;exitY=1;exitDx=0;exitDy=0;entryX=0.5;entryY=0;entryDx=0;entryDy=0;entryPerimeter=0;" edge="1" parent="WIyWlLk6GJQsqaUBKTNV-1" source="SnTEJqyS0EekTpEARaaV-118" target="SnTEJqyS0EekTpEARaaV-173">
          <mxGeometry relative="1" as="geometry" />
        </mxCell>
        <mxCell id="SnTEJqyS0EekTpEARaaV-175" style="edgeStyle=orthogonalEdgeStyle;rounded=0;orthogonalLoop=1;jettySize=auto;html=1;exitX=0.5;exitY=1;exitDx=0;exitDy=0;exitPerimeter=0;entryX=0.5;entryY=0;entryDx=0;entryDy=0;entryPerimeter=0;" edge="1" parent="WIyWlLk6GJQsqaUBKTNV-1" source="SnTEJqyS0EekTpEARaaV-173" target="SnTEJqyS0EekTpEARaaV-121">
          <mxGeometry relative="1" as="geometry" />
        </mxCell>
        <mxCell id="SnTEJqyS0EekTpEARaaV-176" value="YES" style="edgeLabel;html=1;align=center;verticalAlign=middle;resizable=0;points=[];" vertex="1" connectable="0" parent="SnTEJqyS0EekTpEARaaV-175">
          <mxGeometry x="-0.1406" y="-1" relative="1" as="geometry">
            <mxPoint as="offset" />
          </mxGeometry>
        </mxCell>
        <mxCell id="SnTEJqyS0EekTpEARaaV-180" style="edgeStyle=orthogonalEdgeStyle;rounded=0;orthogonalLoop=1;jettySize=auto;html=1;exitX=0.5;exitY=0;exitDx=0;exitDy=0;entryX=1;entryY=0.5;entryDx=0;entryDy=0;" edge="1" parent="WIyWlLk6GJQsqaUBKTNV-1" source="SnTEJqyS0EekTpEARaaV-177" target="SnTEJqyS0EekTpEARaaV-118">
          <mxGeometry relative="1" as="geometry">
            <Array as="points">
              <mxPoint x="476" y="880" />
            </Array>
          </mxGeometry>
        </mxCell>
        <mxCell id="SnTEJqyS0EekTpEARaaV-177" value="PRINT &quot;WRONG DAY&quot;" style="shape=parallelogram;html=1;strokeWidth=2;perimeter=parallelogramPerimeter;whiteSpace=wrap;rounded=1;arcSize=12;size=0.23;" vertex="1" parent="WIyWlLk6GJQsqaUBKTNV-1">
          <mxGeometry x="336.25" y="1010" width="278.75" height="60" as="geometry" />
        </mxCell>
      </root>
    </mxGraphModel>
  </diagram>
</mxfile>
